<svg preserveAspectRatio="none" overflow="visible" style="display: block;" width="48" height="48" viewBox="0 0 48 48" fill="none" xmlns="http://www.w3.org/2000/svg">
<g id="Frame 1618874003">
<rect width="48" height="48" rx="24" fill="#68A0E0" fill-opacity="0.12"/>
<path id="Vector" d="M24 13.3333C19.5771 13.3333 16 16.9772 16 21.4826C16 26.3373 21.0514 33.0313 23.1314 35.5809C23.5886 36.1397 24.4229 36.1397 24.88 35.5809C26.9486 33.0313 32 26.3373 32 21.4826C32 16.9772 28.4229 13.3333 24 13.3333ZM24 24.3931C23.2422 24.3931 22.5155 24.0864 21.9797 23.5406C21.4439 22.9948 21.1429 22.2545 21.1429 21.4826C21.1429 20.7107 21.4439 19.9704 21.9797 19.4246C22.5155 18.8788 23.2422 18.5722 24 18.5722C24.7578 18.5722 25.4845 18.8788 26.0203 19.4246C26.5561 19.9704 26.8571 20.7107 26.8571 21.4826C26.8571 22.2545 26.5561 22.9948 26.0203 23.5406C25.4845 24.0864 24.7578 24.3931 24 24.3931V24.3931Z" fill="white"/>
</g>
</svg>
